<mxfile host="app.diagrams.net" agent="Mozilla/5.0 (X11; Linux x86_64) AppleWebKit/537.36 (KHTML, like Gecko) Chrome/138.0.0.0 Safari/537.36" version="27.2.0">
  <diagram name="ページ1" id="bCySqn-w97ShjyVGsrOH">
    <mxGraphModel dx="1604" dy="1119" grid="1" gridSize="10" guides="1" tooltips="1" connect="1" arrows="1" fold="1" page="1" pageScale="1" pageWidth="827" pageHeight="1169" math="0" shadow="0">
      <root>
        <mxCell id="0" />
        <mxCell id="1" parent="0" />
        <mxCell id="p2HGP7Fkp4bgqcOsEvyL-10" style="edgeStyle=orthogonalEdgeStyle;rounded=0;orthogonalLoop=1;jettySize=auto;html=1;exitX=0.5;exitY=1;exitDx=0;exitDy=0;entryX=0.5;entryY=0;entryDx=0;entryDy=0;" edge="1" parent="1" source="p2HGP7Fkp4bgqcOsEvyL-1" target="p2HGP7Fkp4bgqcOsEvyL-3">
          <mxGeometry relative="1" as="geometry" />
        </mxCell>
        <mxCell id="p2HGP7Fkp4bgqcOsEvyL-1" value="" style="rounded=0;whiteSpace=wrap;html=1;" vertex="1" parent="1">
          <mxGeometry x="-400" y="40" width="120" height="60" as="geometry" />
        </mxCell>
        <mxCell id="p2HGP7Fkp4bgqcOsEvyL-6" style="edgeStyle=orthogonalEdgeStyle;rounded=0;orthogonalLoop=1;jettySize=auto;html=1;" edge="1" parent="1" source="p2HGP7Fkp4bgqcOsEvyL-3">
          <mxGeometry relative="1" as="geometry">
            <mxPoint x="-100" y="260" as="targetPoint" />
          </mxGeometry>
        </mxCell>
        <mxCell id="p2HGP7Fkp4bgqcOsEvyL-7" value="Yes" style="edgeLabel;html=1;align=center;verticalAlign=middle;resizable=0;points=[];" vertex="1" connectable="0" parent="p2HGP7Fkp4bgqcOsEvyL-6">
          <mxGeometry x="-0.0795" relative="1" as="geometry">
            <mxPoint as="offset" />
          </mxGeometry>
        </mxCell>
        <mxCell id="p2HGP7Fkp4bgqcOsEvyL-8" style="edgeStyle=orthogonalEdgeStyle;rounded=0;orthogonalLoop=1;jettySize=auto;html=1;exitX=0.5;exitY=1;exitDx=0;exitDy=0;entryX=0.5;entryY=0;entryDx=0;entryDy=0;" edge="1" parent="1" source="p2HGP7Fkp4bgqcOsEvyL-3" target="p2HGP7Fkp4bgqcOsEvyL-4">
          <mxGeometry relative="1" as="geometry" />
        </mxCell>
        <mxCell id="p2HGP7Fkp4bgqcOsEvyL-9" value="No" style="edgeLabel;html=1;align=center;verticalAlign=middle;resizable=0;points=[];" vertex="1" connectable="0" parent="p2HGP7Fkp4bgqcOsEvyL-8">
          <mxGeometry x="0.0133" y="9" relative="1" as="geometry">
            <mxPoint as="offset" />
          </mxGeometry>
        </mxCell>
        <mxCell id="p2HGP7Fkp4bgqcOsEvyL-3" value="Check if stacks are on command line" style="rounded=1;whiteSpace=wrap;html=1;" vertex="1" parent="1">
          <mxGeometry x="-400" y="150" width="120" height="60" as="geometry" />
        </mxCell>
        <mxCell id="p2HGP7Fkp4bgqcOsEvyL-4" value="check stack a and b" style="ellipse;whiteSpace=wrap;html=1;" vertex="1" parent="1">
          <mxGeometry x="-400" y="260" width="120" height="80" as="geometry" />
        </mxCell>
      </root>
    </mxGraphModel>
  </diagram>
</mxfile>
